<svg xmlns="http://www.w3.org/2000/svg" version="1.1" viewBox="-5.0 -10.0 110.0 135.0">
    <path
        d="m26.625 81.875c-3.75-4.1094-8.3438-10.844-8.9062-19.578-0.3125-4.8281 0.65625-10.203 6.3438-20.734 6.1719-11.438 14.266-22.094 24.047-31.703 9.7812 9.6094 17.859 20.266 24.047 31.703 0.39062 0.73438 1.3125 1.0156 2.0469 0.60938 0.73438-0.39062 1-1.3125 0.60938-2.0469-6.5469-12.109-15.172-23.359-25.641-33.453-0.57812-0.5625-1.5156-0.5625-2.0938 0-10.469 10.094-19.094 21.344-25.641 33.453-6.0469 11.172-7.0625 17.016-6.7188 22.359 0.60938 9.625 5.6094 16.969 9.7344 21.484 6.5156 6.5156 15.094 9.7812 23.672 9.7812 8.0938 0 16.172-2.9062 22.547-8.7188 0.625-0.57812 0.625-1.5781 0.03125-2.1719-0.57812-0.57812-1.5-0.57812-2.0938-0.03125-11.953 10.859-30.5 10.531-41.984-0.95312z" />
    <path
        d="m64.094 48.906c-1.2656 0.73438-2.3594 1.3594-4.6719 1.3594s-3.4062-0.625-4.6719-1.3594c-1.4375-0.82812-3.0625-1.7656-6.1719-1.7656-0.82812 0-1.5156 0.67188-1.5156 1.5156 0 0.82812 0.67188 1.5156 1.5156 1.5156 2.3125 0 3.4062 0.625 4.6719 1.3594 1.4375 0.82812 3.0625 1.7656 6.1719 1.7656s4.7344-0.9375 6.1719-1.7656c1.2656-0.73438 2.3594-1.3594 4.6562-1.3594 2.3125 0 3.4062 0.625 4.6719 1.3594 1.4375 0.82812 3.0625 1.7656 6.1719 1.7656 3.125 0 4.75-0.9375 6.1875-1.7656 1.2656-0.73438 2.3594-1.3594 4.6719-1.3594 0.82812 0 1.5156-0.67188 1.5156-1.5156 0-0.82812-0.67188-1.5156-1.5156-1.5156-3.125 0-4.75 0.9375-6.1875 1.7656-1.2656 0.73438-2.3594 1.3594-4.6719 1.3594s-3.4062-0.625-4.6719-1.3594c-1.4375-0.82812-3.0625-1.7656-6.1719-1.7656-3.0938 0-4.7188 0.9375-6.1562 1.7656z" />
    <path
        d="m91.969 58.875c-3.125 0-4.75 0.9375-6.1875 1.7656-1.2656 0.73438-2.3594 1.3594-4.6719 1.3594s-3.4062-0.625-4.6719-1.3594c-1.4375-0.82812-3.0625-1.7656-6.1719-1.7656s-4.7344 0.9375-6.1719 1.7656c-1.2656 0.73438-2.3594 1.3594-4.6719 1.3594s-3.4062-0.625-4.6719-1.3594c-1.4375-0.82812-3.0625-1.7656-6.1719-1.7656-0.82812 0-1.5156 0.67188-1.5156 1.5156 0 0.82812 0.67188 1.5156 1.5156 1.5156 2.3125 0 3.4062 0.625 4.6719 1.3594 1.4375 0.82812 3.0625 1.7656 6.1719 1.7656s4.7344-0.9375 6.1719-1.7656c1.2656-0.73438 2.3594-1.3594 4.6562-1.3594 2.3125 0 3.4062 0.625 4.6719 1.3594 1.4375 0.82812 3.0625 1.7656 6.1719 1.7656 3.125 0 4.75-0.9375 6.1875-1.7656 1.2656-0.73438 2.3594-1.3594 4.6719-1.3594 0.82812 0 1.5156-0.67188 1.5156-1.5156 0.015625-0.82812-0.65625-1.5156-1.5-1.5156z" />
    <path
        d="m91.969 70.625c-3.125 0-4.75 0.9375-6.1875 1.7656-1.2656 0.73438-2.3594 1.3594-4.6719 1.3594s-3.4062-0.625-4.6719-1.3594c-1.4375-0.82812-3.0625-1.7656-6.1719-1.7656s-4.7344 0.9375-6.1719 1.7656c-1.2656 0.73438-2.3594 1.3594-4.6719 1.3594s-3.4062-0.625-4.6719-1.3594c-1.4375-0.82812-3.0625-1.7656-6.1719-1.7656-0.82812 0-1.5156 0.67188-1.5156 1.5156 0 0.82812 0.67188 1.5156 1.5156 1.5156 2.3125 0 3.4062 0.625 4.6719 1.3594 1.4375 0.82812 3.0625 1.7656 6.1719 1.7656s4.7344-0.9375 6.1719-1.7656c1.2656-0.73438 2.3594-1.3594 4.6562-1.3594 2.3125 0 3.4062 0.625 4.6719 1.3594 1.4375 0.82812 3.0625 1.7656 6.1719 1.7656 3.125 0 4.75-0.9375 6.1875-1.7656 1.2656-0.73438 2.3594-1.3594 4.6719-1.3594 0.82812 0 1.5156-0.67188 1.5156-1.5156 0.015625-0.82812-0.65625-1.5156-1.5-1.5156z" />

</svg>