<svg xmlns="http://www.w3.org/2000/svg" viewBox="0 0 58 72.5" x="0px" y="0px">
    <title>Highest Temperature</title>
    <g data-name="Highest Temperature">
        <path
            d="M35,33.17V16.32a6,6,0,0,0-12,0V33.17a8.61,8.61,0,0,0-3,6.52,9,9,0,0,0,18,0A8.61,8.61,0,0,0,35,33.17ZM29,46.47a6.9,6.9,0,0,1-7-6.77,6.64,6.64,0,0,1,2.61-5.26l.39-.3V16.32a4,4,0,0,1,8,0V34.13l.39.3A6.64,6.64,0,0,1,36,39.7,6.9,6.9,0,0,1,29,46.47Z" />
        <path
            d="M30,35.95V16.32a1,1,0,0,0-2,0V35.95a3.63,3.63,0,0,0-3,3.75,4,4,0,0,0,8,0A3.63,3.63,0,0,0,30,35.95Z" />
    </g>

</svg>