<svg xmlns="http://www.w3.org/2000/svg" version="1.1" viewBox="-5.0 -10.0 110.0 135.0">
    <g>
        <path
            d="m47.371 22.531-4.0195-3.5391c-1.3281-1.1406-2.7695-2.4688-3.8594-3.2617-2.4102-1.7383-5.2383-2.8711-8.1602-3.2305-2.9297-0.39062-5.8906-0.019531-8.6289 1-1.3711 0.51953-2.6719 1.1914-3.8789 1.9883-0.58984 0.42188-1.1914 0.83984-1.7305 1.3203-0.28125 0.23047-0.53906 0.48047-0.80078 0.73047l-0.92188 0.89844c-2.2383 2.2109-5.2109 5.8398-8.1719 3-3.6211-3.4609 0.14844-6.6797 2.7812-8.8594l1.1484-0.94922c0.41016-0.35156 0.85156-0.66016 1.2812-0.98047 0.87891-0.60938 1.7695-1.1914 2.6992-1.6914 1.8516-1.0195 3.8086-1.8008 5.8203-2.3398 4.0117-1.1016 8.2617-1.1797 12.23-0.30078 3.9883 0.87891 7.7109 2.75 10.781 5.3594l8.1992 7.3906 4.0898 3.6406 2.0312 1.8008c0.62109 0.55078 1.2812 1.0312 1.9609 1.4883 2.7383 1.8203 5.9414 2.9219 9.2109 3.1914 3.2695 0.26172 6.6211-0.26953 9.6094-1.6016 1.5117-0.64844 2.9219-1.5117 4.2188-2.5117 0.66016-0.51172 1.25-1.0391 1.8789-1.6406l1.9688-1.8984c1.6797-1.6211 3.6016-5.1016 6.2891-2.1719 2.4883 2.7109-0.78125 4.5898-2.5195 6.3398l-1.9883 1.9883c-0.78125 0.75-1.5781 1.4883-2.4492 2.1406-1.7109 1.3398-3.6289 2.4219-5.6289 3.2695-4.0312 1.6719-8.4609 2.2812-12.781 1.75-4.3203-0.51953-8.4883-2.1719-11.988-4.7617-1.8398-1.3984-3.0703-2.6289-4.5-3.8594l-4.1914-3.7188z" />
        <path
            d="m24.691 57.25c0-6.0898-0.57031-12.172-0.48828-18.262 0.019531-1.3398-0.44922-3.3281 3.6602-3.3711 5-0.050782 4.6211 2.0586 4.3008 3.5-2.7305 12.43-1.2617 24.891-1.8398 37.328-0.050781 0.98828 1.0586 2.6211-2.9102 2.5508-3.6797-0.070313-2.6914-1.6211-2.6992-2.6719-0.03125-6.3594-0.019532-12.73-0.019532-19.09-0.17187 0 0.17188 0 0 0z" />
        <path
            d="m28.371 31.91c1.2305 0.019532 2.4492 0.23047 3.6016 0.60938 1.2305 0.39062 2.3789 1.0586 3.3008 1.7695 0.44922 0.33984 0.92969 0.76953 1.2617 1.0898l2.7891 2.5781c2.4688 2.2891 4.9414 4.5781 7.2891 6.9883 1.0391 1.0586 2.9219 2.2891 0.050781 5.2188-3.5 3.5703-4.8711 1.6602-5.7812 0.30078-1.9492-2.9102-4.0781-5.6406-6.3281-8.2617l-1.7109-1.9414c-0.62891-0.69141-1.0508-1.1914-1.5508-1.5703-0.92188-0.75-2.1797-1.0898-3.4219-1.0391-1.2305 0.078125-2.4102 0.57812-3.3086 1.4414l-3.5781 3.6094c-2.4219 2.4414-4.8711 4.8711-7.4102 7.1992-0.80859 0.75-1.3008 2.8008-4.0508-0.058594-2.5508-2.6602-0.64063-3.1719 0.17969-4l7.4492-7.4805 2.8008-2.8008 0.51172-0.5c0.23047-0.21875 0.46094-0.44141 0.71875-0.64062 1.9805-1.6406 4.6016-2.5586 7.1797-2.5195z" />
        <path
            d="m75.02 68.922c0 6.0898 0.57031 12.172 0.48828 18.262-0.019531 1.3398 0.44922 3.3281-3.6602 3.3711-5 0.050781-4.6211-2.0586-4.3008-3.5 2.7305-12.43 1.2617-24.891 1.8398-37.328 0.050781-0.98828-1.0586-2.6211 2.9102-2.5508 3.6797 0.070313 2.6914 1.6211 2.6992 2.6719 0.03125 6.3594 0.019531 12.73 0.019531 19.09 0.17188 0-0.17188 0 0 0z" />
        <path
            d="m71.34 94.262c-1.2305-0.019531-2.4492-0.23047-3.6016-0.60938-1.2305-0.39062-2.3789-1.0586-3.3008-1.7695-0.44922-0.33984-0.92969-0.76953-1.2617-1.0898l-2.7891-2.5781c-2.4688-2.2891-4.9414-4.5781-7.2891-6.9883-1.0391-1.0586-2.9219-2.2891-0.050781-5.2188 3.5-3.5703 4.8711-1.6602 5.7812-0.30078 1.9492 2.9102 4.0781 5.6406 6.3281 8.2617l1.7109 1.9414c0.62891 0.69141 1.0508 1.1914 1.5508 1.5703 0.92188 0.75 2.1797 1.0898 3.4219 1.0391 1.2305-0.078125 2.4102-0.57812 3.3086-1.4414l3.5781-3.6094c2.4219-2.4414 4.8711-4.8711 7.4102-7.1992 0.80859-0.75 1.3008-2.8008 4.0508 0.058594 2.5508 2.6602 0.64062 3.1719-0.17969 4l-7.4492 7.4805-2.8008 2.8008-0.51172 0.5c-0.23047 0.21875-0.46094 0.44141-0.71875 0.64062-1.9805 1.6406-4.6016 2.5586-7.1797 2.5195z" />
    </g>

</svg>